REM DIRINDEX 1\3,1\4,1\5,1\6,1\2\7,1\2\8,1\2\9,1\2\10,1\2\11
REM DIRNAME cjc021,folder01,folder02,folder03,folder04,folder05,folder06,folder07,folder08,folder09,folder10
TITLE ""
FILE "DISC5Track05.mp3" MP3
  TRACK 01 AUDIO
    TITLE "0:"
    INDEX 01 00:00:00
  TRACK 02 AUDIO
    TITLE "3:cjc021_4931"
    INDEX 01 00:00:23
  TRACK 03 AUDIO
    TITLE "0:"
    INDEX 01 00:01:21
  TRACK 04 AUDIO
    TITLE "4:cjc021_4932"
    INDEX 01 00:02:69
  TRACK 05 AUDIO
    TITLE "0:"
    INDEX 01 00:03:68
  TRACK 06 AUDIO
    TITLE "5:cjc021_4933"
    INDEX 01 00:04:29
  TRACK 07 AUDIO
    TITLE "0:"
    INDEX 01 00:07:15
  TRACK 08 AUDIO
    TITLE "3:cjc021_4934"
    INDEX 01 00:08:56
  TRACK 09 AUDIO
    TITLE "0:"
    INDEX 01 00:10:18
  TRACK 10 AUDIO
    TITLE "4:cjc021_4935"
    INDEX 01 00:11:74
  TRACK 11 AUDIO
    TITLE "0:"
    INDEX 01 00:13:35
  TRACK 12 AUDIO
    TITLE "5:cjc021_4936"
    INDEX 01 00:13:73
  TRACK 13 AUDIO
    TITLE "0:"
    INDEX 01 00:17:25
  TRACK 14 AUDIO
    TITLE "3:cjc021_4937"
    INDEX 01 00:18:64
  TRACK 15 AUDIO
    TITLE "0:"
    INDEX 01 00:19:65
  TRACK 16 AUDIO
    TITLE "4:cjc021_4938"
    INDEX 01 00:21:43
  TRACK 17 AUDIO
    TITLE "0:"
    INDEX 01 00:22:44
  TRACK 18 AUDIO
    TITLE "5:cjc021_4939"
    INDEX 01 00:23:06
  TRACK 19 AUDIO
    TITLE "0:"
    INDEX 01 00:26:42
  TRACK 20 AUDIO
    TITLE "3:cjc021_4940"
    INDEX 01 00:28:02
  TRACK 21 AUDIO
    TITLE "0:"
    INDEX 01 00:29:11
  TRACK 22 AUDIO
    TITLE "4:cjc021_4941"
    INDEX 01 00:30:63
  TRACK 23 AUDIO
    TITLE "0:"
    INDEX 01 00:31:71
  TRACK 24 AUDIO
    TITLE "5:cjc021_4942"
    INDEX 01 00:32:33
  TRACK 25 AUDIO
    TITLE "0:"
    INDEX 01 00:35:45
  TRACK 26 AUDIO
    TITLE "3:cjc021_4943"
    INDEX 01 00:37:10
  TRACK 27 AUDIO
    TITLE "0:"
    INDEX 01 00:38:35
  TRACK 28 AUDIO
    TITLE "4:cjc021_4944"
    INDEX 01 00:40:13
  TRACK 29 AUDIO
    TITLE "0:"
    INDEX 01 00:41:38
  TRACK 30 AUDIO
    TITLE "5:cjc021_4945"
    INDEX 01 00:41:73
  TRACK 31 AUDIO
    TITLE "0:"
    INDEX 01 00:45:08
  TRACK 32 AUDIO
    TITLE "3:cjc021_4946"
    INDEX 01 00:46:45
  TRACK 33 AUDIO
    TITLE "0:"
    INDEX 01 00:47:42
  TRACK 34 AUDIO
    TITLE "4:cjc021_4947"
    INDEX 01 00:49:21
  TRACK 35 AUDIO
    TITLE "0:"
    INDEX 01 00:50:21
  TRACK 36 AUDIO
    TITLE "5:cjc021_4948"
    INDEX 01 00:50:60
  TRACK 37 AUDIO
    TITLE "0:"
    INDEX 01 00:53:31
  TRACK 38 AUDIO
    TITLE "3:cjc021_4949"
    INDEX 01 00:54:68
  TRACK 39 AUDIO
    TITLE "0:"
    INDEX 01 00:55:73
  TRACK 40 AUDIO
    TITLE "4:cjc021_4950"
    INDEX 01 00:57:48
  TRACK 41 AUDIO
    TITLE "0:"
    INDEX 01 00:58:54
  TRACK 42 AUDIO
    TITLE "5:cjc021_4951"
    INDEX 01 00:59:16
  TRACK 43 AUDIO
    TITLE "0:"
    INDEX 01 01:01:33
  TRACK 44 AUDIO
    TITLE "3:cjc021_4952"
    INDEX 01 01:02:69
  TRACK 45 AUDIO
    TITLE "0:"
    INDEX 01 01:04:07
  TRACK 46 AUDIO
    TITLE "4:cjc021_4953"
    INDEX 01 01:05:58
  TRACK 47 AUDIO
    TITLE "0:"
    INDEX 01 01:06:71
  TRACK 48 AUDIO
    TITLE "5:cjc021_4954"
    INDEX 01 01:07:33
  TRACK 49 AUDIO
    TITLE "0:"
    INDEX 01 01:09:52
  TRACK 50 AUDIO
    TITLE "3:cjc021_4955"
    INDEX 01 01:11:17
  TRACK 51 AUDIO
    TITLE "0:"
    INDEX 01 01:12:26
  TRACK 52 AUDIO
    TITLE "4:cjc021_4956"
    INDEX 01 01:14:04
  TRACK 53 AUDIO
    TITLE "0:"
    INDEX 01 01:15:15
  TRACK 54 AUDIO
    TITLE "5:cjc021_4957"
    INDEX 01 01:15:50
  TRACK 55 AUDIO
    TITLE "0:"
    INDEX 01 01:17:33
  TRACK 56 AUDIO
    TITLE "3:cjc021_4958"
    INDEX 01 01:18:70
  TRACK 57 AUDIO
    TITLE "0:"
    INDEX 01 01:19:72
  TRACK 58 AUDIO
    TITLE "4:cjc021_4959"
    INDEX 01 01:21:51
  TRACK 59 AUDIO
    TITLE "0:"
    INDEX 01 01:22:54
  TRACK 60 AUDIO
    TITLE "5:cjc021_4960"
    INDEX 01 01:23:18
  TRACK 61 AUDIO
    TITLE "0:"
    INDEX 01 01:25:49
